<svg width="260" height="251" viewBox="0 0 260 251" fill="none" xmlns="http://www.w3.org/2000/svg">
<path fill-rule="evenodd" clip-rule="evenodd" d="M9.82019 36.1321V219.934L130 241.024L250.18 219.934V36.1321L130 15.0223L9.82019 36.1321Z" fill="url(#paint0_radial_1_6)"/>
<path fill-rule="evenodd" clip-rule="evenodd" d="M9.82019 210.077L250.18 71.3412V36.1713L190.551 25.6852L9.82019 130.017V210.077Z" fill="url(#paint1_radial_1_6)"/>
<path opacity="0.75" fill-rule="evenodd" clip-rule="evenodd" d="M250.18 92.1367L24.3738 222.487L54.0505 227.691L250.18 114.484V92.1367Z" fill="url(#paint2_radial_1_6)"/>
<g opacity="0.5" filter="url(#filter0_d_1_6)">
<path fill-rule="evenodd" clip-rule="evenodd" d="M9.82019 36.1321V219.934L130 241.024L250.18 219.934V36.1321L130 15.0223L9.82019 36.1321Z" fill="url(#paint3_radial_1_6)"/>
</g>
<path fill-rule="evenodd" clip-rule="evenodd" d="M9.82021 219.934V36.1321L0 27.8845V228.182L9.82021 219.934Z" fill="url(#paint4_radial_1_6)"/>
<path fill-rule="evenodd" clip-rule="evenodd" d="M130 241.024L9.82021 219.934L0 228.182L130 251V241.024Z" fill="url(#paint5_radial_1_6)"/>
<path fill-rule="evenodd" clip-rule="evenodd" d="M250.18 219.934L130 241.024V251L260 228.182L250.18 219.934Z" fill="url(#paint6_radial_1_6)"/>
<path fill-rule="evenodd" clip-rule="evenodd" d="M250.18 36.1321V219.934L260 228.182V27.8845L250.18 36.1321Z" fill="url(#paint7_radial_1_6)"/>
<path fill-rule="evenodd" clip-rule="evenodd" d="M9.82021 36.132L130 15.0223V5.04669L0 27.8845L9.82021 36.132Z" fill="url(#paint8_radial_1_6)"/>
<path fill-rule="evenodd" clip-rule="evenodd" d="M130 15.0223L250.18 36.132L260 27.8845L130 5.04669V15.0223Z" fill="url(#paint9_radial_1_6)"/>
<path fill-rule="evenodd" clip-rule="evenodd" d="M9.8202 207.17L7.65976 35.7197L0.726685 28.4933L9.19171 34.0309L60.0801 27.2954L9.8202 36.1321V207.17Z" fill="white"/>
<path fill-rule="evenodd" clip-rule="evenodd" d="M82.9415 23.2895L127.82 13.2746L130 5.81256V15.0223L82.9415 23.2895Z" fill="white"/>
<path fill-rule="evenodd" clip-rule="evenodd" d="M82.9415 23.2895L127.82 13.2746L130 5.81256V15.0223L82.9415 23.2895Z" fill="white"/>
<path fill-rule="evenodd" clip-rule="evenodd" d="M19.6601 44.3796V211.687L130 231.068L240.34 211.687V44.3796L130 24.9979L19.6601 44.3796ZM25.5522 49.3281V206.719L130 225.06L234.448 206.719V49.3281L130 30.9872L25.5522 49.3281Z" fill="#F9B233"/>
<path fill-rule="evenodd" clip-rule="evenodd" d="M22.6062 46.8539L130 28.0024V24.9979L19.6601 44.3796L22.6062 46.8539Z" fill="url(#paint10_linear_1_6)"/>
<path fill-rule="evenodd" clip-rule="evenodd" d="M130 28.0023L22.6061 46.8539L25.5522 49.3281L130 30.9872V28.0023Z" fill="url(#paint11_linear_1_6)"/>
<path fill-rule="evenodd" clip-rule="evenodd" d="M130 28.0024L237.394 46.8539L240.34 44.3796L130 24.9979V28.0024Z" fill="url(#paint12_linear_1_6)"/>
<path fill-rule="evenodd" clip-rule="evenodd" d="M237.394 46.8539L130 28.0023V30.9872L234.448 49.3281L237.394 46.8539Z" fill="url(#paint13_linear_1_6)"/>
<path fill-rule="evenodd" clip-rule="evenodd" d="M234.448 49.3281V206.738L237.394 209.212V46.8539L234.448 49.3281Z" fill="url(#paint14_linear_1_6)"/>
<path fill-rule="evenodd" clip-rule="evenodd" d="M237.394 46.8539V209.213L240.34 211.687V44.3796L237.394 46.8539Z" fill="url(#paint15_linear_1_6)"/>
<path fill-rule="evenodd" clip-rule="evenodd" d="M22.6062 209.213V46.8539L19.6601 44.3796V211.687L22.6062 209.213Z" fill="url(#paint16_linear_1_6)"/>
<path fill-rule="evenodd" clip-rule="evenodd" d="M22.6061 46.8539V209.212L25.5522 206.738V49.3281L22.6061 46.8539Z" fill="url(#paint17_linear_1_6)"/>
<path fill-rule="evenodd" clip-rule="evenodd" d="M130 225.079L25.5522 206.738L22.6061 209.213L130 228.064V225.079Z" fill="url(#paint18_linear_1_6)"/>
<path fill-rule="evenodd" clip-rule="evenodd" d="M130 228.064L22.6062 209.212L19.6601 211.687L130 231.068V228.064Z" fill="url(#paint19_linear_1_6)"/>
<path fill-rule="evenodd" clip-rule="evenodd" d="M130 225.079V228.064L237.394 209.213L234.448 206.738L130 225.079Z" fill="url(#paint20_linear_1_6)"/>
<path fill-rule="evenodd" clip-rule="evenodd" d="M237.394 209.212L130 228.064V231.068L240.34 211.687L237.394 209.212Z" fill="url(#paint21_linear_1_6)"/>
<path fill-rule="evenodd" clip-rule="evenodd" d="M31.7585 16.3183V66.1963L130 82.5146L228.241 66.1963V16.3183L130 0L31.7585 16.3183ZM35.6866 19.6174V62.8973L130 78.5283L224.313 62.8973V19.6174L130 3.98631L35.6866 19.6174Z" fill="#F9B233"/>
<path fill-rule="evenodd" clip-rule="evenodd" d="M31.7585 66.1963L33.7226 64.5468V17.9678L31.7585 16.3183V66.1963Z" fill="url(#paint22_linear_1_6)"/>
<path fill-rule="evenodd" clip-rule="evenodd" d="M33.7226 17.9678V64.5468L35.6866 62.8973V19.6173L33.7226 17.9678Z" fill="url(#paint23_linear_1_6)"/>
<path fill-rule="evenodd" clip-rule="evenodd" d="M33.7226 17.9678L130 2.00297V0L31.7585 16.3183L33.7226 17.9678Z" fill="url(#paint24_linear_1_6)"/>
<path fill-rule="evenodd" clip-rule="evenodd" d="M130 2.00296L33.7226 17.9678L35.6866 19.6173L130 3.9863V2.00296Z" fill="url(#paint25_linear_1_6)"/>
<path fill-rule="evenodd" clip-rule="evenodd" d="M130 2.00297L226.277 17.9678L228.241 16.3183L130 0V2.00297Z" fill="url(#paint26_linear_1_6)"/>
<path fill-rule="evenodd" clip-rule="evenodd" d="M226.277 17.9678L130 2.00296V3.9863L224.313 19.6173L226.277 17.9678Z" fill="url(#paint27_linear_1_6)"/>
<path fill-rule="evenodd" clip-rule="evenodd" d="M224.313 19.6173V62.8973L226.277 64.5468V17.9678L224.313 19.6173Z" fill="url(#paint28_linear_1_6)"/>
<path fill-rule="evenodd" clip-rule="evenodd" d="M226.277 17.9678V64.5468L228.241 66.1963V16.3183L226.277 17.9678Z" fill="url(#paint29_linear_1_6)"/>
<path fill-rule="evenodd" clip-rule="evenodd" d="M224.313 62.8973L130 78.5283V80.5117L226.277 64.5468L224.313 62.8973Z" fill="url(#paint30_linear_1_6)"/>
<path fill-rule="evenodd" clip-rule="evenodd" d="M226.277 64.5468L130 80.5117V82.5146L228.241 66.1963L226.277 64.5468Z" fill="url(#paint31_linear_1_6)"/>
<path fill-rule="evenodd" clip-rule="evenodd" d="M130 78.5283L35.6866 62.8973L33.7226 64.5468L130 80.5117V78.5283Z" fill="url(#paint32_linear_1_6)"/>
<path fill-rule="evenodd" clip-rule="evenodd" d="M130 80.5117L33.7226 64.5468L31.7585 66.1963L130 82.5146V80.5117Z" fill="url(#paint33_linear_1_6)"/>
<path fill-rule="evenodd" clip-rule="evenodd" d="M35.6866 19.6173V62.8973L130 78.5283L224.313 62.8973V19.6173L130 3.9863L35.6866 19.6173Z" fill="url(#paint34_radial_1_6)"/>
<path fill-rule="evenodd" clip-rule="evenodd" d="M45.5265 27.8649V54.6498L130 68.5527L214.473 54.6498V27.8649L130 13.9619L45.5265 27.8649Z" fill="url(#paint35_radial_1_6)"/>
<path fill-rule="evenodd" clip-rule="evenodd" d="M45.5265 54.6497V27.8649L35.6866 19.6173V62.8973L45.5265 54.6497Z" fill="url(#paint36_radial_1_6)"/>
<path fill-rule="evenodd" clip-rule="evenodd" d="M45.5265 27.8649L130 13.9619V3.9863L35.6866 19.6173L45.5265 27.8649Z" fill="url(#paint37_radial_1_6)"/>
<path fill-rule="evenodd" clip-rule="evenodd" d="M214.473 54.6497V27.8649L224.313 19.6173V62.8973L214.473 54.6497Z" fill="url(#paint38_radial_1_6)"/>
<path fill-rule="evenodd" clip-rule="evenodd" d="M214.473 27.8649L130 13.9619V3.9863L224.313 19.6173L214.473 27.8649Z" fill="url(#paint39_radial_1_6)"/>
<path fill-rule="evenodd" clip-rule="evenodd" d="M45.5265 54.6497L130 68.5527V78.5283L35.6866 62.8973L45.5265 54.6497Z" fill="url(#paint40_radial_1_6)"/>
<path fill-rule="evenodd" clip-rule="evenodd" d="M214.473 54.6497L130 68.5527V78.5283L224.313 62.8973L214.473 54.6497Z" fill="url(#paint41_radial_1_6)"/>
<path fill-rule="evenodd" clip-rule="evenodd" d="M45.5265 51.6846L44.0928 27.5507L37.1793 20.8545L45.0748 26.5492L89.089 21.149L45.5265 27.8649V51.6846Z" fill="white"/>
<path fill-rule="evenodd" clip-rule="evenodd" d="M92.5457 20.5403L128.861 12.9408L130 4.94852V13.9619L92.5457 20.5403Z" fill="white"/>
<defs>
<filter id="filter0_d_1_6" x="9.82019" y="15.0223" width="240.36" height="230.002" filterUnits="userSpaceOnUse" color-interpolation-filters="sRGB">
<feFlood flood-opacity="0" result="BackgroundImageFix"/>
<feColorMatrix in="SourceAlpha" type="matrix" values="0 0 0 0 0 0 0 0 0 0 0 0 0 0 0 0 0 0 127 0" result="hardAlpha"/>
<feOffset dy="4"/>
<feComposite in2="hardAlpha" operator="out"/>
<feColorMatrix type="matrix" values="0 0 0 0 0 0 0 0 0 0 0 0 0 0 0 0 0 0 0.25 0"/>
<feBlend mode="normal" in2="BackgroundImageFix" result="effect1_dropShadow_1_6"/>
<feBlend mode="normal" in="SourceGraphic" in2="effect1_dropShadow_1_6" result="shape"/>
</filter>
<radialGradient id="paint0_radial_1_6" cx="0" cy="0" r="1" gradientUnits="userSpaceOnUse" gradientTransform="translate(130 15.0221) scale(253.471 253.427)">
<stop stop-color="#B729F4"/>
<stop offset="1" stop-color="#E470FF"/>
</radialGradient>
<radialGradient id="paint1_radial_1_6" cx="0" cy="0" r="1" gradientUnits="userSpaceOnUse" gradientTransform="translate(164.231 -112.561) scale(462.89 462.809)">
<stop stop-color="#D07CF7"/>
<stop offset="1" stop-color="#000868"/>
</radialGradient>
<radialGradient id="paint2_radial_1_6" cx="0" cy="0" r="1" gradientUnits="userSpaceOnUse" gradientTransform="translate(337.734 -105.046) scale(484.027 483.942)">
<stop stop-color="#D07CF7"/>
<stop offset="1"/>
</radialGradient>
<radialGradient id="paint3_radial_1_6" cx="0" cy="0" r="1" gradientUnits="userSpaceOnUse" gradientTransform="translate(13.9631 23.0279) scale(282.629 282.579)">
<stop stop-color="#3A1351"/>
<stop offset="1"/>
</radialGradient>
<radialGradient id="paint4_radial_1_6" cx="0" cy="0" r="1" gradientUnits="userSpaceOnUse" gradientTransform="translate(-30.9248 14.1229) scale(242.105 242.062)">
<stop stop-color="#F794EE"/>
<stop offset="1" stop-color="#D956F7"/>
</radialGradient>
<radialGradient id="paint5_radial_1_6" cx="0" cy="0" r="1" gradientUnits="userSpaceOnUse" gradientTransform="translate(119.507 120.155) scale(183.184 183.152)">
<stop stop-color="#F6B0F7"/>
<stop offset="1" stop-color="#B31ADE"/>
</radialGradient>
<radialGradient id="paint6_radial_1_6" cx="0" cy="0" r="1" gradientUnits="userSpaceOnUse" gradientTransform="translate(200.333 453.652) scale(296.622 296.57)">
<stop stop-color="#F7D4F4"/>
<stop offset="1" stop-color="#DD6AF7"/>
</radialGradient>
<radialGradient id="paint7_radial_1_6" cx="0" cy="0" r="1" gradientUnits="userSpaceOnUse" gradientTransform="translate(88.5698 35.765) scale(272.78 272.732)">
<stop stop-color="#F6B0F7"/>
<stop offset="1" stop-color="#B31ADE"/>
</radialGradient>
<radialGradient id="paint8_radial_1_6" cx="0" cy="0" r="1" gradientUnits="userSpaceOnUse" gradientTransform="translate(102.128 -13.3722) scale(320.254 320.198)">
<stop stop-color="#F7D4F4"/>
<stop offset="1" stop-color="#DD6AF7"/>
</radialGradient>
<radialGradient id="paint9_radial_1_6" cx="0" cy="0" r="1" gradientUnits="userSpaceOnUse" gradientTransform="translate(280.881 -198.77) scale(381.694 381.627)">
<stop stop-color="#F6B0F7"/>
<stop offset="1" stop-color="#B31ADE"/>
</radialGradient>
<linearGradient id="paint10_linear_1_6" x1="19.6536" y1="35.9276" x2="130" y2="35.9276" gradientUnits="userSpaceOnUse">
<stop stop-color="#F5D36C"/>
<stop offset="1" stop-color="#FFF5B0"/>
</linearGradient>
<linearGradient id="paint11_linear_1_6" x1="22.6016" y1="38.6615" x2="130" y2="38.6615" gradientUnits="userSpaceOnUse">
<stop stop-color="#6B4200"/>
<stop offset="1" stop-color="#A87219"/>
</linearGradient>
<linearGradient id="paint12_linear_1_6" x1="130" y1="35.9276" x2="240.347" y2="35.9276" gradientUnits="userSpaceOnUse">
<stop stop-color="#FFDD6E"/>
<stop offset="1" stop-color="#D69705"/>
</linearGradient>
<linearGradient id="paint13_linear_1_6" x1="130" y1="38.6615" x2="237.399" y2="38.6615" gradientUnits="userSpaceOnUse">
<stop stop-color="#BF8800"/>
<stop offset="1" stop-color="#A36808"/>
</linearGradient>
<linearGradient id="paint14_linear_1_6" x1="235.925" y1="209.204" x2="235.925" y2="46.8548" gradientUnits="userSpaceOnUse">
<stop stop-color="#EB9E21"/>
<stop offset="1" stop-color="#FFD97A"/>
</linearGradient>
<linearGradient id="paint15_linear_1_6" x1="238.873" y1="211.679" x2="238.873" y2="44.38" gradientUnits="userSpaceOnUse">
<stop stop-color="#E8B048"/>
<stop offset="1" stop-color="#8F6B09"/>
</linearGradient>
<linearGradient id="paint16_linear_1_6" x1="21.1276" y1="211.679" x2="21.1276" y2="44.38" gradientUnits="userSpaceOnUse">
<stop stop-color="#EB9E21"/>
<stop offset="1" stop-color="#FFD97A"/>
</linearGradient>
<linearGradient id="paint17_linear_1_6" x1="24.0756" y1="209.204" x2="24.0756" y2="46.8548" gradientUnits="userSpaceOnUse">
<stop stop-color="#E8B048"/>
<stop offset="1" stop-color="#8F6B09"/>
</linearGradient>
<linearGradient id="paint18_linear_1_6" x1="22.6016" y1="217.398" x2="130" y2="217.398" gradientUnits="userSpaceOnUse">
<stop stop-color="#D69705"/>
<stop offset="1" stop-color="#FFDD6E"/>
</linearGradient>
<linearGradient id="paint19_linear_1_6" x1="19.6536" y1="220.131" x2="130" y2="220.131" gradientUnits="userSpaceOnUse">
<stop stop-color="#A36808"/>
<stop offset="1" stop-color="#BF8800"/>
</linearGradient>
<linearGradient id="paint20_linear_1_6" x1="130" y1="217.398" x2="237.399" y2="217.398" gradientUnits="userSpaceOnUse">
<stop stop-color="#FFF5B0"/>
<stop offset="1" stop-color="#F5D36C"/>
</linearGradient>
<linearGradient id="paint21_linear_1_6" x1="130" y1="220.131" x2="240.347" y2="220.131" gradientUnits="userSpaceOnUse">
<stop stop-color="#A87219"/>
<stop offset="1" stop-color="#6B4200"/>
</linearGradient>
<linearGradient id="paint22_linear_1_6" x1="32.7469" y1="66.1969" x2="32.7469" y2="16.3122" gradientUnits="userSpaceOnUse">
<stop stop-color="#EB9E21"/>
<stop offset="1" stop-color="#FFD97A"/>
</linearGradient>
<linearGradient id="paint23_linear_1_6" x1="34.7125" y1="64.547" x2="34.7125" y2="17.9619" gradientUnits="userSpaceOnUse">
<stop stop-color="#E8B048"/>
<stop offset="1" stop-color="#8F6B09"/>
</linearGradient>
<linearGradient id="paint24_linear_1_6" x1="31.7644" y1="8.98118" x2="130" y2="8.98118" gradientUnits="userSpaceOnUse">
<stop stop-color="#F5D36C"/>
<stop offset="1" stop-color="#FFF5B0"/>
</linearGradient>
<linearGradient id="paint25_linear_1_6" x1="33.7299" y1="10.8035" x2="130" y2="10.8035" gradientUnits="userSpaceOnUse">
<stop stop-color="#6B4200"/>
<stop offset="1" stop-color="#A87219"/>
</linearGradient>
<linearGradient id="paint26_linear_1_6" x1="130" y1="8.98118" x2="228.236" y2="8.98118" gradientUnits="userSpaceOnUse">
<stop stop-color="#FFDD6E"/>
<stop offset="1" stop-color="#D69705"/>
</linearGradient>
<linearGradient id="paint27_linear_1_6" x1="130" y1="10.8035" x2="226.271" y2="10.8035" gradientUnits="userSpaceOnUse">
<stop stop-color="#BF8800"/>
<stop offset="1" stop-color="#A36808"/>
</linearGradient>
<linearGradient id="paint28_linear_1_6" x1="225.288" y1="64.547" x2="225.288" y2="17.9621" gradientUnits="userSpaceOnUse">
<stop stop-color="#EB9E21"/>
<stop offset="1" stop-color="#FFD97A"/>
</linearGradient>
<linearGradient id="paint29_linear_1_6" x1="227.253" y1="66.1971" x2="227.253" y2="16.3122" gradientUnits="userSpaceOnUse">
<stop stop-color="#E8B048"/>
<stop offset="1" stop-color="#8F6B09"/>
</linearGradient>
<linearGradient id="paint30_linear_1_6" x1="130" y1="71.7058" x2="226.271" y2="71.7058" gradientUnits="userSpaceOnUse">
<stop stop-color="#FFF5B0"/>
<stop offset="1" stop-color="#F5D36C"/>
</linearGradient>
<linearGradient id="paint31_linear_1_6" x1="130" y1="73.5282" x2="228.236" y2="73.5282" gradientUnits="userSpaceOnUse">
<stop stop-color="#A87219"/>
<stop offset="1" stop-color="#6B4200"/>
</linearGradient>
<linearGradient id="paint32_linear_1_6" x1="33.7297" y1="71.7058" x2="130" y2="71.7058" gradientUnits="userSpaceOnUse">
<stop stop-color="#D69705"/>
<stop offset="1" stop-color="#FFDD6E"/>
</linearGradient>
<linearGradient id="paint33_linear_1_6" x1="31.7644" y1="73.5282" x2="130" y2="73.5282" gradientUnits="userSpaceOnUse">
<stop stop-color="#A36808"/>
<stop offset="1" stop-color="#BF8800"/>
</linearGradient>
<radialGradient id="paint34_radial_1_6" cx="0" cy="0" r="1" gradientUnits="userSpaceOnUse" gradientTransform="translate(130 41.2548) scale(104.357 104.339)">
<stop stop-color="#D0B0F7"/>
<stop offset="1" stop-color="#BD3CF4"/>
</radialGradient>
<radialGradient id="paint35_radial_1_6" cx="0" cy="0" r="1" gradientUnits="userSpaceOnUse" gradientTransform="translate(136.466 156.065) scale(164.524 164.496)">
<stop stop-color="#FF80E1"/>
<stop offset="1" stop-color="#9D20EB"/>
</radialGradient>
<radialGradient id="paint36_radial_1_6" cx="0" cy="0" r="1" gradientUnits="userSpaceOnUse" gradientTransform="translate(2.14785 13.7253) scale(94.116 94.0995)">
<stop stop-color="#FF80E1"/>
<stop offset="1" stop-color="#9D20EB"/>
</radialGradient>
<radialGradient id="paint37_radial_1_6" cx="0" cy="0" r="1" gradientUnits="userSpaceOnUse" gradientTransform="translate(113.176 -12.2947) scale(188.923 188.89)">
<stop stop-color="#F080FF"/>
<stop offset="1" stop-color="#B133FF"/>
</radialGradient>
<radialGradient id="paint38_radial_1_6" cx="0" cy="0" r="1" gradientUnits="userSpaceOnUse" gradientTransform="translate(240.37 95.8762) scale(105.078 105.06)">
<stop stop-color="#FF80E1"/>
<stop offset="1" stop-color="#9D20EB"/>
</radialGradient>
<radialGradient id="paint39_radial_1_6" cx="0" cy="0" r="1" gradientUnits="userSpaceOnUse" gradientTransform="translate(140.316 74.262) scale(154.079 154.052)">
<stop stop-color="#FF80E1"/>
<stop offset="1" stop-color="#9D20EB"/>
</radialGradient>
<radialGradient id="paint40_radial_1_6" cx="0" cy="0" r="1" gradientUnits="userSpaceOnUse" gradientTransform="translate(113.429 -25.8364) scale(111.067 111.047)">
<stop stop-color="#FF80E1"/>
<stop offset="1" stop-color="#9D20EB"/>
</radialGradient>
<radialGradient id="paint41_radial_1_6" cx="0" cy="0" r="1" gradientUnits="userSpaceOnUse" gradientTransform="translate(170.897 124.264) scale(222.064 222.025)">
<stop stop-color="#F080FF"/>
<stop offset="1" stop-color="#B133FF"/>
</radialGradient>
</defs>
</svg>
