<?xml version="1.0" encoding="utf-8"?>
<!-- Generator: Adobe Illustrator 23.0.5, SVG Export Plug-In . SVG Version: 6.00 Build 0)  -->
<svg version="1.1" id="Capa_1" xmlns="http://www.w3.org/2000/svg" xmlns:xlink="http://www.w3.org/1999/xlink" x="0px" y="0px"
	 viewBox="0 0 260 251" style="enable-background:new 0 0 260 251;" xml:space="preserve">
<style type="text/css">
	.st0{fill-rule:evenodd;clip-rule:evenodd;fill:url(#SVGID_1_);}
	.st1{fill-rule:evenodd;clip-rule:evenodd;fill:url(#SVGID_2_);}
	.st2{opacity:0.75;fill-rule:evenodd;clip-rule:evenodd;fill:url(#SVGID_3_);enable-background:new    ;}
	.st3{opacity:0.5;}
	.st4{fill-rule:evenodd;clip-rule:evenodd;fill:url(#SVGID_4_);}
	.st5{fill-rule:evenodd;clip-rule:evenodd;fill:url(#SVGID_5_);}
	.st6{fill-rule:evenodd;clip-rule:evenodd;fill:url(#SVGID_6_);}
	.st7{fill-rule:evenodd;clip-rule:evenodd;fill:url(#SVGID_7_);} 
	.st8{fill-rule:evenodd;clip-rule:evenodd;fill:url(#SVGID_8_);}
	.st9{fill-rule:evenodd;clip-rule:evenodd;fill:url(#SVGID_9_);}
	.st10{fill-rule:evenodd;clip-rule:evenodd;fill:url(#SVGID_10_);}
	.st11{fill-rule:evenodd;clip-rule:evenodd;fill:#FFFAD9;}
	.st12{fill-rule:evenodd;clip-rule:evenodd;fill:#F9B233;}
	.st13{fill-rule:evenodd;clip-rule:evenodd;fill:url(#SVGID_11_);}
	.st14{fill-rule:evenodd;clip-rule:evenodd;fill:url(#SVGID_12_);}
	.st15{fill-rule:evenodd;clip-rule:evenodd;fill:url(#SVGID_13_);}
	.st16{fill-rule:evenodd;clip-rule:evenodd;fill:url(#SVGID_14_);}
	.st17{fill-rule:evenodd;clip-rule:evenodd;fill:url(#SVGID_15_);}
	.st18{fill-rule:evenodd;clip-rule:evenodd;fill:url(#SVGID_16_);}
	.st19{fill-rule:evenodd;clip-rule:evenodd;fill:url(#SVGID_17_);}
	.st20{fill-rule:evenodd;clip-rule:evenodd;fill:url(#SVGID_18_);}
	.st21{fill-rule:evenodd;clip-rule:evenodd;fill:url(#SVGID_19_);}
	.st22{fill-rule:evenodd;clip-rule:evenodd;fill:url(#SVGID_20_);}
	.st23{fill-rule:evenodd;clip-rule:evenodd;fill:url(#SVGID_21_);}
	.st24{fill-rule:evenodd;clip-rule:evenodd;fill:url(#SVGID_22_);}
	.st25{fill-rule:evenodd;clip-rule:evenodd;fill:#FFAD0D;}
	.st26{fill-rule:evenodd;clip-rule:evenodd;fill:url(#SVGID_23_);}
	.st27{fill-rule:evenodd;clip-rule:evenodd;fill:url(#SVGID_24_);}
	.st28{fill-rule:evenodd;clip-rule:evenodd;fill:url(#SVGID_25_);}
	.st29{fill-rule:evenodd;clip-rule:evenodd;fill:url(#SVGID_26_);}
	.st30{fill-rule:evenodd;clip-rule:evenodd;fill:url(#SVGID_27_);}
	.st31{fill-rule:evenodd;clip-rule:evenodd;fill:url(#SVGID_28_);}
	.st32{fill-rule:evenodd;clip-rule:evenodd;fill:url(#SVGID_29_);}
	.st33{fill-rule:evenodd;clip-rule:evenodd;fill:url(#SVGID_30_);}
	.st34{fill-rule:evenodd;clip-rule:evenodd;fill:url(#SVGID_31_);}
	.st35{fill-rule:evenodd;clip-rule:evenodd;fill:url(#SVGID_32_);}
	.st36{fill-rule:evenodd;clip-rule:evenodd;fill:url(#SVGID_33_);}
	.st37{fill-rule:evenodd;clip-rule:evenodd;fill:url(#SVGID_34_);}
	.st38{fill-rule:evenodd;clip-rule:evenodd;fill:url(#SVGID_35_);}
	.st39{fill-rule:evenodd;clip-rule:evenodd;fill:url(#SVGID_36_);}
	.st40{fill-rule:evenodd;clip-rule:evenodd;fill:url(#SVGID_37_);}
	.st41{fill-rule:evenodd;clip-rule:evenodd;fill:url(#SVGID_38_);}
	.st42{fill-rule:evenodd;clip-rule:evenodd;fill:url(#SVGID_39_);}
	.st43{fill-rule:evenodd;clip-rule:evenodd;fill:url(#SVGID_40_);}
	.st44{fill-rule:evenodd;clip-rule:evenodd;fill:url(#SVGID_41_);}
	.st45{fill-rule:evenodd;clip-rule:evenodd;fill:url(#SVGID_42_);}
</style>
<radialGradient id="SVGID_1_" cx="-174.3096" cy="520.9346" r="1" gradientTransform="matrix(253.471 0 0 -253.427 44312.4219 132033.9219)" gradientUnits="userSpaceOnUse">
	<stop  offset="0" style="stop-color:#F424CE"/>
	<stop  offset="1" style="stop-color:#FF6BD9"/>
</radialGradient>
<path class="st0" d="M9.8,36.1v183.8L130,241l120.2-21.1V36.1L130,15L9.8,36.1z"/>
<radialGradient id="SVGID_2_" cx="-174.6219" cy="521.4166" r="1" gradientTransform="matrix(462.89 0 0 -462.809 80994.9844 241203.7344)" gradientUnits="userSpaceOnUse">
	<stop  offset="0" style="stop-color:#FF77D1"/>
	<stop  offset="1" style="stop-color:#3D0342"/>
</radialGradient>
<path class="st1" d="M9.8,210.1L250.2,71.3V36.2l-59.6-10.5L9.8,130V210.1z"/>
<radialGradient id="SVGID_3_" cx="-174.6384" cy="521.4421" r="1" gradientTransform="matrix(484.027 0 0 -483.942 84867.4609 252242.6719)" gradientUnits="userSpaceOnUse">
	<stop  offset="0" style="stop-color:#FF77D1"/>
	<stop  offset="1" style="stop-color:#3D0000"/>
</radialGradient>
<path class="st2" d="M250.2,92.1L24.4,222.5l29.7,5.2l196.1-113.2V92.1z"/>
<g class="st3">
	
		<radialGradient id="SVGID_4_" cx="-174.3808" cy="521.0445" r="1" gradientTransform="matrix(282.629 0 0 -282.579 49299.0391 147259.2656)" gradientUnits="userSpaceOnUse">
		<stop  offset="0" style="stop-color:#770E2B"/>
		<stop  offset="1" style="stop-color:#3D0000"/>
	</radialGradient>
	<path class="st4" d="M9.8,36.1v183.8L130,241l120.2-21.1V36.1L130,15L9.8,36.1z"/>
</g>
<radialGradient id="SVGID_5_" cx="-174.2772" cy="520.8846" r="1" gradientTransform="matrix(242.105 0 0 -242.062 42162.4492 126100.4844)" gradientUnits="userSpaceOnUse">
	<stop  offset="0" style="stop-color:#FF8FC8"/>
	<stop  offset="1" style="stop-color:#FF51D1"/>
</radialGradient>
<path class="st5" d="M9.8,219.9V36.1L0,27.9v200.3L9.8,219.9z"/>
<radialGradient id="SVGID_6_" cx="-174.0447" cy="520.5258" r="1" gradientTransform="matrix(183.184 0 0 -183.152 32001.707 95455.4922)" gradientUnits="userSpaceOnUse">
	<stop  offset="0" style="stop-color:#FFABD1"/>
	<stop  offset="1" style="stop-color:#F015B8"/>
</radialGradient>
<path class="st6" d="M130,241L9.8,219.9L0,228.2L130,251V241z"/>
<radialGradient id="SVGID_7_" cx="-174.41" cy="521.0896" r="1" gradientTransform="matrix(296.622 0 0 -296.57 51934.1836 154993.2031)" gradientUnits="userSpaceOnUse">
	<stop  offset="0" style="stop-color:#FFCFCE"/>
	<stop  offset="1" style="stop-color:#FF65D1"/>
</radialGradient>
<path class="st7" d="M250.2,219.9L130,241v10l130-22.8L250.2,219.9z"/>
<radialGradient id="SVGID_8_" cx="-174.3585" cy="521.01" r="1" gradientTransform="matrix(272.78 0 0 -272.732 47650.0703 142131.8594)" gradientUnits="userSpaceOnUse">
	<stop  offset="0" style="stop-color:#FFABD1"/>
	<stop  offset="1" style="stop-color:#F015B8"/>
</radialGradient>
<path class="st8" d="M250.2,36.1v183.8l9.8,8.2V27.9L250.2,36.1z"/>
<radialGradient id="SVGID_9_" cx="-174.4536" cy="521.1568" r="1" gradientTransform="matrix(320.254 0 0 -320.198 55971.5781 166859.9844)" gradientUnits="userSpaceOnUse">
	<stop  offset="0" style="stop-color:#FFCFCE"/>
	<stop  offset="1" style="stop-color:#FF65D1"/>
</radialGradient>
<path class="st9" d="M9.8,36.1L130,15V5L0,27.9L9.8,36.1z"/>
<radialGradient id="SVGID_10_" cx="-174.5415" cy="521.2925" r="1" gradientTransform="matrix(381.694 0 0 -381.627 66902.3281 198740.5313)" gradientUnits="userSpaceOnUse">
	<stop  offset="0" style="stop-color:#FFABD1"/>
	<stop  offset="1" style="stop-color:#F015B8"/>
</radialGradient>
<path class="st10" d="M130,15l120.2,21.1l9.8-8.2L130,5V15z"/>
<path class="st11" d="M9.8,207.2L7.7,35.7l-6.9-7.2L9.2,34l50.9-6.7L9.8,36.1V207.2z"/>
<path class="st11" d="M82.9,23.3l44.9-10l2.2-7.5V15L82.9,23.3z"/>
<path class="st11" d="M82.9,23.3l44.9-10l2.2-7.5V15L82.9,23.3z"/>
<path class="st12" d="M19.7,44.4v167.3L130,231.1l110.3-19.4V44.4L130,25L19.7,44.4z M25.6,49.3v157.4L130,225.1l104.4-18.3V49.3
	L130,31L25.6,49.3z"/>
<linearGradient id="SVGID_11_" gradientUnits="userSpaceOnUse" x1="19.6601" y1="216.0741" x2="130" y2="216.0741" gradientTransform="matrix(1 0 0 -1 0 252)">
	<stop  offset="0" style="stop-color:#F5D36C"/>
	<stop  offset="1" style="stop-color:#FFF5B0"/>
</linearGradient>
<path class="st13" d="M22.6,46.9L130,28v-3L19.7,44.4L22.6,46.9z"/>
<linearGradient id="SVGID_12_" gradientUnits="userSpaceOnUse" x1="22.6061" y1="213.3348" x2="130" y2="213.3348" gradientTransform="matrix(1 0 0 -1 0 252)">
	<stop  offset="0" style="stop-color:#6B4200"/>
	<stop  offset="1" style="stop-color:#A87219"/>
</linearGradient>
<path class="st14" d="M130,28L22.6,46.9l2.9,2.5L130,31V28z"/>
<linearGradient id="SVGID_13_" gradientUnits="userSpaceOnUse" x1="130" y1="216.0741" x2="240.34" y2="216.0741" gradientTransform="matrix(1 0 0 -1 0 252)">
	<stop  offset="0" style="stop-color:#FFDD6E"/>
	<stop  offset="1" style="stop-color:#D69705"/>
</linearGradient>
<path class="st15" d="M130,28l107.4,18.9l2.9-2.5L130,25V28z"/>
<linearGradient id="SVGID_14_" gradientUnits="userSpaceOnUse" x1="130" y1="213.3348" x2="237.394" y2="213.3348" gradientTransform="matrix(1 0 0 -1 0 252)">
	<stop  offset="0" style="stop-color:#BF8800"/>
	<stop  offset="1" style="stop-color:#A36808"/>
</linearGradient>
<path class="st16" d="M237.4,46.9L130,28v3l104.4,18.3L237.4,46.9z"/>
<linearGradient id="SVGID_15_" gradientUnits="userSpaceOnUse" x1="235.921" y1="42.788" x2="235.921" y2="205.1461" gradientTransform="matrix(1 0 0 -1 0 252)">
	<stop  offset="0" style="stop-color:#EB9E21"/>
	<stop  offset="1" style="stop-color:#FFD97A"/>
</linearGradient>
<path class="st17" d="M234.4,49.3v157.4l2.9,2.5V46.9L234.4,49.3z"/>
<linearGradient id="SVGID_16_" gradientUnits="userSpaceOnUse" x1="238.867" y1="40.313" x2="238.867" y2="207.6204" gradientTransform="matrix(1 0 0 -1 0 252)">
	<stop  offset="0" style="stop-color:#E8B048"/>
	<stop  offset="1" style="stop-color:#8F6B09"/>
</linearGradient>
<path class="st18" d="M237.4,46.9v162.4l2.9,2.5V44.4L237.4,46.9z"/>
<linearGradient id="SVGID_17_" gradientUnits="userSpaceOnUse" x1="21.1332" y1="40.313" x2="21.1332" y2="207.6204" gradientTransform="matrix(1 0 0 -1 0 252)">
	<stop  offset="0" style="stop-color:#EB9E21"/>
	<stop  offset="1" style="stop-color:#FFD97A"/>
</linearGradient>
<path class="st19" d="M22.6,209.2V46.9l-2.9-2.5v167.3L22.6,209.2z"/>
<linearGradient id="SVGID_18_" gradientUnits="userSpaceOnUse" x1="24.0792" y1="42.788" x2="24.0792" y2="205.1461" gradientTransform="matrix(1 0 0 -1 0 252)">
	<stop  offset="0" style="stop-color:#E8B048"/>
	<stop  offset="1" style="stop-color:#8F6B09"/>
</linearGradient>
<path class="st20" d="M22.6,46.9v162.4l2.9-2.5V49.3L22.6,46.9z"/>
<linearGradient id="SVGID_19_" gradientUnits="userSpaceOnUse" x1="22.6061" y1="34.599" x2="130" y2="34.599" gradientTransform="matrix(1 0 0 -1 0 252)">
	<stop  offset="0" style="stop-color:#D69705"/>
	<stop  offset="1" style="stop-color:#FFDD6E"/>
</linearGradient>
<path class="st21" d="M130,225.1L25.6,206.7l-2.9,2.5L130,228.1V225.1z"/>
<linearGradient id="SVGID_20_" gradientUnits="userSpaceOnUse" x1="19.6601" y1="31.86" x2="130" y2="31.86" gradientTransform="matrix(1 0 0 -1 0 252)">
	<stop  offset="0" style="stop-color:#A36808"/>
	<stop  offset="1" style="stop-color:#BF8800"/>
</linearGradient>
<path class="st22" d="M130,228.1L22.6,209.2l-2.9,2.5L130,231.1V228.1z"/>
<linearGradient id="SVGID_21_" gradientUnits="userSpaceOnUse" x1="130" y1="34.599" x2="237.394" y2="34.599" gradientTransform="matrix(1 0 0 -1 0 252)">
	<stop  offset="0" style="stop-color:#FFF5B0"/>
	<stop  offset="1" style="stop-color:#F5D36C"/>
</linearGradient>
<path class="st23" d="M130,225.1v3l107.4-18.9l-2.9-2.5L130,225.1z"/>
<linearGradient id="SVGID_22_" gradientUnits="userSpaceOnUse" x1="130" y1="31.86" x2="240.34" y2="31.86" gradientTransform="matrix(1 0 0 -1 0 252)">
	<stop  offset="0" style="stop-color:#A87219"/>
	<stop  offset="1" style="stop-color:#6B4200"/>
</linearGradient>
<path class="st24" d="M237.4,209.2L130,228.1v3l110.3-19.4L237.4,209.2z"/>
<path class="st25" d="M31.8,16.3v49.9L130,82.5l98.2-16.3V16.3L130,0L31.8,16.3z M35.7,19.6v43.3L130,78.5l94.3-15.6V19.6L130,4
	L35.7,19.6z"/>
<linearGradient id="SVGID_23_" gradientUnits="userSpaceOnUse" x1="32.7406" y1="185.8037" x2="32.7406" y2="235.6817" gradientTransform="matrix(1 0 0 -1 0 252)">
	<stop  offset="0" style="stop-color:#EB9E21"/>
	<stop  offset="1" style="stop-color:#FFD97A"/>
</linearGradient>
<path class="st26" d="M31.8,66.2l2-1.6V18l-2-1.6V66.2z"/>
<linearGradient id="SVGID_24_" gradientUnits="userSpaceOnUse" x1="34.7046" y1="187.4532" x2="34.7046" y2="234.0322" gradientTransform="matrix(1 0 0 -1 0 252)">
	<stop  offset="0" style="stop-color:#E8B048"/>
	<stop  offset="1" style="stop-color:#8F6B09"/>
</linearGradient>
<path class="st27" d="M33.7,18v46.6l2-1.6V19.6L33.7,18z"/>
<linearGradient id="SVGID_25_" gradientUnits="userSpaceOnUse" x1="31.7585" y1="243.0161" x2="130" y2="243.0161" gradientTransform="matrix(1 0 0 -1 0 252)">
	<stop  offset="0" style="stop-color:#F5D36C"/>
	<stop  offset="1" style="stop-color:#FFF5B0"/>
</linearGradient>
<path class="st28" d="M33.7,18L130,2V0L31.8,16.3L33.7,18z"/>
<linearGradient id="SVGID_26_" gradientUnits="userSpaceOnUse" x1="33.7226" y1="241.1899" x2="130" y2="241.1899" gradientTransform="matrix(1 0 0 -1 0 252)">
	<stop  offset="0" style="stop-color:#6B4200"/>
	<stop  offset="1" style="stop-color:#A87219"/>
</linearGradient>
<path class="st29" d="M130,2L33.7,18l2,1.6L130,4V2z"/>
<linearGradient id="SVGID_27_" gradientUnits="userSpaceOnUse" x1="130" y1="243.0161" x2="228.241" y2="243.0161" gradientTransform="matrix(1 0 0 -1 0 252)">
	<stop  offset="0" style="stop-color:#FFDD6E"/>
	<stop  offset="1" style="stop-color:#D69705"/>
</linearGradient>
<path class="st30" d="M130,2l96.3,16l2-1.6L130,0V2z"/>
<linearGradient id="SVGID_28_" gradientUnits="userSpaceOnUse" x1="130" y1="241.1899" x2="226.277" y2="241.1899" gradientTransform="matrix(1 0 0 -1 0 252)">
	<stop  offset="0" style="stop-color:#BF8800"/>
	<stop  offset="1" style="stop-color:#A36808"/>
</linearGradient>
<path class="st31" d="M226.3,18L130,2v2l94.3,15.6L226.3,18z"/>
<linearGradient id="SVGID_29_" gradientUnits="userSpaceOnUse" x1="225.295" y1="187.4532" x2="225.295" y2="234.0322" gradientTransform="matrix(1 0 0 -1 0 252)">
	<stop  offset="0" style="stop-color:#EB9E21"/>
	<stop  offset="1" style="stop-color:#FFD97A"/>
</linearGradient>
<path class="st32" d="M224.3,19.6v43.3l2,1.6V18L224.3,19.6z"/>
<linearGradient id="SVGID_30_" gradientUnits="userSpaceOnUse" x1="227.259" y1="185.8037" x2="227.259" y2="235.6817" gradientTransform="matrix(1 0 0 -1 0 252)">
	<stop  offset="0" style="stop-color:#E8B048"/>
	<stop  offset="1" style="stop-color:#8F6B09"/>
</linearGradient>
<path class="st33" d="M226.3,18v46.6l2,1.6V16.3L226.3,18z"/>
<linearGradient id="SVGID_31_" gradientUnits="userSpaceOnUse" x1="130" y1="180.2955" x2="226.277" y2="180.2955" gradientTransform="matrix(1 0 0 -1 0 252)">
	<stop  offset="0" style="stop-color:#FFF5B0"/>
	<stop  offset="1" style="stop-color:#F5D36C"/>
</linearGradient>
<path class="st34" d="M224.3,62.9L130,78.5v2l96.3-16L224.3,62.9z"/>
<linearGradient id="SVGID_32_" gradientUnits="userSpaceOnUse" x1="130" y1="178.4693" x2="228.241" y2="178.4693" gradientTransform="matrix(1 0 0 -1 0 252)">
	<stop  offset="0" style="stop-color:#A87219"/>
	<stop  offset="1" style="stop-color:#6B4200"/>
</linearGradient>
<path class="st35" d="M226.3,64.5l-96.3,16v2l98.2-16.3L226.3,64.5z"/>
<linearGradient id="SVGID_33_" gradientUnits="userSpaceOnUse" x1="33.7226" y1="180.2955" x2="130" y2="180.2955" gradientTransform="matrix(1 0 0 -1 0 252)">
	<stop  offset="0" style="stop-color:#D69705"/>
	<stop  offset="1" style="stop-color:#FFDD6E"/>
</linearGradient>
<path class="st36" d="M130,78.5L35.7,62.9l-2,1.6l96.3,16V78.5z"/>
<linearGradient id="SVGID_34_" gradientUnits="userSpaceOnUse" x1="31.7585" y1="178.4693" x2="130" y2="178.4693" gradientTransform="matrix(1 0 0 -1 0 252)">
	<stop  offset="0" style="stop-color:#A36808"/>
	<stop  offset="1" style="stop-color:#BF8800"/>
</linearGradient>
<path class="st37" d="M130,80.5l-96.3-16l-2,1.6L130,82.5V80.5z"/>
<radialGradient id="SVGID_35_" cx="-173.3231" cy="519.4122" r="1" gradientTransform="matrix(104.357 0 0 -104.339 18217.4746 54236.2109)" gradientUnits="userSpaceOnUse">
	<stop  offset="0" style="stop-color:#FFABD1"/>
	<stop  offset="1" style="stop-color:#FA37CE"/>
</radialGradient>
<path class="st38" d="M35.7,19.6v43.3L130,78.5l94.3-15.6V19.6L130,4L35.7,19.6z"/>
<radialGradient id="SVGID_36_" cx="-173.9363" cy="520.3586" r="1" gradientTransform="matrix(164.524 0 0 -164.496 28753.166 85752.9766)" gradientUnits="userSpaceOnUse">
	<stop  offset="0" style="stop-color:#FF7BBB"/>
	<stop  offset="1" style="stop-color:#DA1BC5"/>
</radialGradient>
<path class="st39" d="M45.5,27.9v26.8L130,68.6l84.5-13.9V27.9L130,14L45.5,27.9z"/>
<radialGradient id="SVGID_37_" cx="-173.1406" cy="519.1307" r="1" gradientTransform="matrix(94.116 0 0 -94.0995 16297.4473 48863.6641)" gradientUnits="userSpaceOnUse">
	<stop  offset="0" style="stop-color:#FF7BBB"/>
	<stop  offset="1" style="stop-color:#DA1BC5"/>
</radialGradient>
<path class="st40" d="M45.5,54.6V27.9l-9.8-8.2v43.3L45.5,54.6z"/>
<radialGradient id="SVGID_38_" cx="-174.0737" cy="520.5706" r="1" gradientTransform="matrix(188.923 0 0 -188.89 32999.7031 98318.2813)" gradientUnits="userSpaceOnUse">
	<stop  offset="0" style="stop-color:#FF7BD9"/>
	<stop  offset="1" style="stop-color:#EE2ED9"/>
</radialGradient>
<path class="st41" d="M45.5,27.9L130,14V4L35.7,19.6L45.5,27.9z"/>
<radialGradient id="SVGID_39_" cx="-173.3346" cy="519.4301" r="1" gradientTransform="matrix(105.078 0 0 -105.06 18454.0195 54667.1953)" gradientUnits="userSpaceOnUse">
	<stop  offset="0" style="stop-color:#FF7BBB"/>
	<stop  offset="1" style="stop-color:#DA1BC5"/>
</radialGradient>
<path class="st42" d="M214.5,54.6V27.9l9.8-8.2v43.3L214.5,54.6z"/>
<radialGradient id="SVGID_40_" cx="-173.8642" cy="520.2474" r="1" gradientTransform="matrix(154.079 0 0 -154.052 26929.1406 80219.4063)" gradientUnits="userSpaceOnUse">
	<stop  offset="0" style="stop-color:#FF7BBB"/>
	<stop  offset="1" style="stop-color:#DA1BC5"/>
</radialGradient>
<path class="st43" d="M214.5,27.9L130,14V4l94.3,15.6L214.5,27.9z"/>
<radialGradient id="SVGID_41_" cx="-173.4244" cy="519.5686" r="1" gradientTransform="matrix(111.067 0 0 -111.047 19375.1543 57670.6953)" gradientUnits="userSpaceOnUse">
	<stop  offset="0" style="stop-color:#FF7BBB"/>
	<stop  offset="1" style="stop-color:#DA1BC5"/>
</radialGradient>
<path class="st44" d="M45.5,54.6L130,68.6v10L35.7,62.9L45.5,54.6z"/>
<radialGradient id="SVGID_42_" cx="-174.2119" cy="520.7839" r="1" gradientTransform="matrix(222.064 0 0 -222.025 38857.0977 115751.3125)" gradientUnits="userSpaceOnUse">
	<stop  offset="0" style="stop-color:#FF7BD9"/>
	<stop  offset="1" style="stop-color:#EE2ED9"/>
</radialGradient>
<path class="st45" d="M214.5,54.6L130,68.6v10l94.3-15.6L214.5,54.6z"/>
<path class="st11" d="M45.5,51.7l-1.4-24.1l-6.9-6.7l7.9,5.7l44-5.4l-43.6,6.7V51.7z"/>
<path class="st11" d="M92.5,20.5l36.3-7.6l1.1-8v9L92.5,20.5z"/>
</svg>
