<?xml version="1.0" encoding="utf-8"?>
<!-- Generator: Adobe Illustrator 23.0.5, SVG Export Plug-In . SVG Version: 6.00 Build 0)  -->
<svg version="1.2" baseProfile="tiny" id="Capa_1" xmlns="http://www.w3.org/2000/svg" xmlns:xlink="http://www.w3.org/1999/xlink"
	 x="0px" y="0px" viewBox="0 0 260 251" xml:space="preserve">
<image width="242" height="226" xlink:href="1A20F090.png"  transform="matrix(1 0 0 1 9 15)">
</image>
<image width="242" height="186" xlink:href="1A20F091.png"  transform="matrix(1 0 0 1 9 25)">
</image>
<image width="227" height="136" xlink:href="1A20F097.png"  transform="matrix(1 0 0 1 24 92)">
</image>
<image width="242" height="226" xlink:href="1A20F092.png"  transform="matrix(1 0 0 1 9 15)">
</image>
<image width="10" height="202" xlink:href="1A20F093.png"  transform="matrix(1 0 0 1 0 27)">
</image>
<image width="130" height="32" xlink:href="1A20F09E.png"  transform="matrix(1 0 0 1 0 219)">
</image>
<image width="130" height="32" xlink:href="1A20F09F.png"  transform="matrix(1 0 0 1 130 219)">
</image>
<image width="10" height="202" xlink:href="1A20F094.png"  transform="matrix(1 0 0 1 250 27)">
</image>
<image width="130" height="32" xlink:href="1A20F095.png"  transform="matrix(1 0 0 1 0 5)">
</image>
<image width="130" height="32" xlink:href="C6C2C52F.png"  transform="matrix(1 0 0 1 130 5)">
</image>
<path fill-rule="evenodd" fill="#FFFAD9" d="M9.8,207.2L7.7,35.7l-6.9-7.2L9.2,34l50.9-6.7L9.8,36.1V207.2z"/>
<path fill-rule="evenodd" fill="#FFFAD9" d="M82.9,23.3l44.9-10l2.2-7.5V15L82.9,23.3z"/>
<path fill-rule="evenodd" fill="#FFFAD9" d="M82.9,23.3l44.9-10l2.2-7.5V15L82.9,23.3z"/>
<path fill-rule="evenodd" fill="#F9B233" d="M19.7,44.4v167.3L130,231.1l110.3-19.4V44.4L130,25L19.7,44.4z M25.6,49.3v157.4
	L130,225.1l104.4-18.3V49.3L130,31L25.6,49.3z"/>
<image width="111" height="22" xlink:href="C6C2C52D.png"  transform="matrix(1 0 0 1 19 25)">
</image>
<image width="108" height="22" xlink:href="C6C2C52B.png"  transform="matrix(1 0 0 1 22 28)">
</image>
<image width="111" height="22" xlink:href="C6C2C525.png"  transform="matrix(1 0 0 1 130 25)">
</image>
<image width="108" height="22" xlink:href="C6C2C527.png"  transform="matrix(1 0 0 1 130 28)">
</image>
<image width="4" height="164" xlink:href="C6C2C53A.png"  transform="matrix(1 0 0 1 234 46)">
</image>
<image width="4" height="168" xlink:href="C6C2C53B.png"  transform="matrix(1 0 0 1 237 44)">
</image>
<image width="4" height="168" xlink:href="C6C2C53D.png"  transform="matrix(1 0 0 1 19 44)">
</image>
<image width="4" height="164" xlink:href="C6C2C53F.png"  transform="matrix(1 0 0 1 22 46)">
</image>
<image width="108" height="23" xlink:href="C6C2C538.png"  transform="matrix(1 0 0 1 22 206)">
</image>
<image width="111" height="23" xlink:href="C6C2C55E.png"  transform="matrix(1 0 0 1 19 209)">
</image>
<image width="108" height="23" xlink:href="C6C2C55D.png"  transform="matrix(1 0 0 1 130 206)">
</image>
<image width="111" height="23" xlink:href="C6C2C55A.png"  transform="matrix(1 0 0 1 130 209)">
</image>
<path fill-rule="evenodd" fill="#FFAD0D" d="M31.8,16.3v49.9L130,82.5l98.2-16.3V16.3L130,0L31.8,16.3z M35.7,19.6v43.3L130,78.5
	l94.3-15.6V19.6L130,4L35.7,19.6z"/>
<image width="3" height="51" xlink:href="C6C2C555.png"  transform="matrix(1 0 0 1 31 16)">
</image>
<image width="3" height="47" xlink:href="C6C2C556.png"  transform="matrix(1 0 0 1 33 18)">
</image>
<image width="99" height="18" xlink:href="C6C2C554.png"  transform="matrix(1 0 0 1 31 0)">
</image>
<image width="97" height="18" xlink:href="C6C2C54A.png"  transform="matrix(1 0 0 1 33 2)">
</image>
<image width="99" height="18" xlink:href="C6C2C54D.png"  transform="matrix(1 0 0 1 130 0)">
</image>
<image width="97" height="18" xlink:href="C6C2C54E.png"  transform="matrix(1 0 0 1 130 2)">
</image>
<image width="3" height="47" xlink:href="C6C2C54C.png"  transform="matrix(1 0 0 1 224 18)">
</image>
<image width="3" height="51" xlink:href="C6C2C571.png"  transform="matrix(1 0 0 1 226 16)">
</image>
<image width="97" height="19" xlink:href="C6C2C56F.png"  transform="matrix(1 0 0 1 130 62)">
</image>
<image width="99" height="19" xlink:href="C6C2C551.png"  transform="matrix(1 0 0 1 130 64)">
</image>
<image width="97" height="19" xlink:href="C6C2C553.png"  transform="matrix(1 0 0 1 33 62)">
</image>
<image width="99" height="19" xlink:href="C6C2C550.png"  transform="matrix(1 0 0 1 31 64)">
</image>
<image width="190" height="75" xlink:href="C6C2C557.png"  transform="matrix(1 0 0 1 35 4)">
</image>
<image width="170" height="55" xlink:href="C6C2C552.png"  transform="matrix(1 0 0 1 45 14)">
</image>
<image width="11" height="44" xlink:href="C6C2C55F.png"  transform="matrix(1 0 0 1 35 19)">
</image>
<image width="95" height="24" xlink:href="C6C2C55C.png"  transform="matrix(1 0 0 1 35 4)">
</image>
<image width="11" height="44" xlink:href="C6C2C548.png"  transform="matrix(1 0 0 1 214 19)">
</image>
<image width="95" height="24" xlink:href="C6C2C5BC.png"  transform="matrix(1 0 0 1 130 4)">
</image>
<image width="95" height="25" xlink:href="C6C2C5BF.png"  transform="matrix(1 0 0 1 35 54)">
</image>
<image width="95" height="25" xlink:href="C6C2C5BD.png"  transform="matrix(1 0 0 1 130 54)">
</image>
<path fill-rule="evenodd" fill="#FFFAD9" d="M45.5,51.7l-1.4-24.1l-6.9-6.7l7.9,5.7l44-5.4l-43.6,6.7V51.7z"/>
<path fill-rule="evenodd" fill="#FFFAD9" d="M92.5,20.5l36.3-7.6l1.1-8v9L92.5,20.5z"/>
</svg>
